<?xml version="1.0" standalone="no"?><!DOCTYPE svg PUBLIC "-//W3C//DTD SVG 1.1//EN" "http://www.w3.org/Graphics/SVG/1.1/DTD/svg11.dtd"><svg t="1564822693829" class="icon" viewBox="0 0 1024 1024" version="1.1" xmlns="http://www.w3.org/2000/svg" p-id="2174" xmlns:xlink="http://www.w3.org/1999/xlink" width="200" height="200"><defs><style type="text/css"></style></defs><path d="M248.751604 913.400674v103.005372l46.163719-51.501686 46.161719 51.501686V913.400674z" fill="#FFD452" p-id="2175"></path><path d="M308.879238 980.532265l-13.989915-15.631905-13.989915 15.631905-32.133804 35.873781h92.297438z" fill="#F58E6F" p-id="2176"></path><path d="M294.889323 953.51443L231.769708 1024h126.31123l-63.191615-70.48557z m0 22.773861l29.161822 32.521802h-58.285645l29.123823-32.521802z" fill="#4A555F" p-id="2177"></path><path d="M186.099986 841.80311h826.220965v-35.873781H186.099986c-29.057823 0-55.347663 11.787928-74.411547 30.851812-19.013884 19.063884-30.799812 45.353724-30.799812 74.413546 0 58.115646 47.097713 105.211359 105.211359 105.211359h62.677618v-35.873781H186.099986c-38.229767 0-69.337577-31.10781-69.337578-69.337578 0-18.501887 7.225956-35.925781 20.345876-49.0957 13.06792-13.06992 30.491814-20.295876 48.991702-20.295877z" fill="#F58E6F" p-id="2178"></path><path d="M341.075042 980.532265h671.245909v35.873781H341.075042z" fill="#F58E6F" p-id="2179"></path><path d="M1019.908905 849.397064v-51.061689H186.091986c-30.121816 0-58.453644 11.745928-79.793514 33.083799-21.29187 21.34787-33.013799 49.679697-33.013799 79.773513 0 62.201621 50.605692 112.807313 112.807313 112.807313h70.269572v-103.009372h77.10753V1024h686.437817v-51.063689h-35.877781v-123.539247h35.879781z m-15.189908 138.727155v20.685874H348.660995V905.80072h-107.487345v103.009373H186.091986c-53.825672 0-97.617405-43.791733-97.617405-97.617406 0-26.043841 10.149938-50.565692 28.573826-69.041579 18.461887-18.459888 42.981738-28.625826 69.043579-28.625825h818.627011v20.681874h-35.877781v153.917062h35.877781z" fill="#4A555F" p-id="2180"></path><path d="M186.091986 834.207157c-20.533875 0-39.843757 7.997951-54.373669 22.529862-14.551911 14.603911-22.561863 33.943793-22.561862 54.455668 0 42.419742 34.51179 76.933531 76.935531 76.933532h70.269572v-67.135591h77.10753v67.135591h650.560036v-153.917062H186.091986z m782.74923 138.729154H348.660995V905.80072h-107.487345v67.135591H186.091986c-34.047793 0-61.745624-27.697831-61.745624-61.743624 0-16.4679 6.437961-31.997805 18.12189-43.725733 11.653929-11.651929 27.145835-18.06989 43.623734-18.06989h782.74923v123.539247z" fill="#4A555F" p-id="2181"></path><path d="M186.087986 867.426954c-11.661929 0-22.625862 4.541972-30.839812 12.757922-8.301949 8.329949-12.871922 19.343882-12.871922 31.009811 0 24.101853 19.607881 43.713734 43.711734 43.713734h37.053774v-67.133591h143.545126v67.133591h584.12844v-87.479467H186.087986z" fill="#DFDFDF" p-id="2182"></path><path d="M221.681769 905.80472h232.99658v15.189908H221.681769zM509.774014 928.912579h335.671954v15.189908H509.774014zM742.950593 878.946884h119.151274v15.189907h-119.151274z" fill="#4A555F" p-id="2183"></path><path d="M912.33556 626.304423c-19.063884-19.063884-45.353724-30.851812-74.413546-30.851812H11.703049v35.873782h826.220965c18.499887 0 35.925781 7.225956 48.993701 20.293876 13.11992 13.16992 20.345876 30.595814 20.345876 49.095701 0 38.229767-31.10781 69.337577-69.339577 69.337577H11.703049v35.873782h826.220965c58.115646 0 105.213359-47.095713 105.213359-105.211359 0-29.055823-11.787928-55.347663-30.801813-74.411547z" fill="#71CCE0" p-id="2184"></path><path d="M917.685528 620.934456c-21.32587-21.32987-49.657697-33.075798-79.777514-33.075798H4.093095v51.063689h35.871781v123.539247H4.093095v51.063689h833.814919c62.201621 0 112.807313-50.605692 112.807313-112.807313 0-30.093817-11.727929-58.429644-33.029799-79.783514z m-79.777514 177.400919H19.281003v-20.685874h35.871781v-153.917062H19.281003v-20.685874h818.627011c26.061841 0 50.581692 10.165938 69.029579 28.617826 18.437888 18.481887 28.587826 43.005738 28.587826 69.051579 0 53.829672-43.793733 97.619405-97.617405 97.619405z" fill="#4A555F" p-id="2185"></path><path d="M892.267683 646.252302c-14.517912-14.521912-33.825794-22.519863-54.359669-22.519863H39.964876v153.917062h797.943138c42.417742 0 76.931531-34.51179 76.931531-76.933531-0.002-20.515875-8.011951-39.853757-22.571862-54.463668z m-54.359669 116.209292H55.152784v-123.539247h782.75323c16.4799 0 31.969805 6.417961 43.609734 18.05989 11.693929 11.735928 18.13189 27.265834 18.13189 43.735733 0.002 34.043793-27.697831 61.743624-61.739624 61.743624z" fill="#4A555F" p-id="2186"></path><path d="M868.783826 669.738159a43.379736 43.379736 0 0 0-30.877812-12.789922l-764.72334 0.004v87.479467h764.72134c24.107853 0 43.715734-19.609881 43.715734-43.715734 0-11.661929-4.573972-22.675862-12.835922-30.977811z" fill="#DFDFDF" p-id="2187"></path><path d="M630.305279 668.472166h164.117v15.189908h-164.117zM309.071237 718.437862h335.671954v15.189907H309.071237zM103.34249 684.990066h94.593424v15.189907H103.34249zM820.914118 209.912961a139.215152 139.215152 0 0 0-14.83791-6.51396 138.119158 138.119158 0 0 0 2.999982-28.647826c0-76.945531-62.595619-139.54515-139.54115-139.54515l-0.721996 0.004A75.159542 75.159542 0 0 0 600.253462 0.160239c-39.40176 2.499985-70.265572 36.371778-70.265572 77.10953v189.308847c0 50.495692 41.07775 91.575442 91.575442 91.575441h184.154878c15.965903 0 30.863812-5.033969 41.953744-14.175913 12.327925-10.165938 20.025878-24.147853 22.877861-41.557747 6.071963-37.053774-13.873915-74.227548-49.635697-92.507436z m34.645788 90.049451c-2.239986 13.673917-8.14395 24.54185-17.547893 32.293803-8.375949 6.905958-19.841879 10.707935-32.291803 10.707935h-184.154878c-42.121743 0-76.387535-34.267791-76.387534-76.385534V77.269769c0-32.7458 24.61385-59.957635 56.039658-61.951622a61.091628 61.091628 0 0 1 3.949976-0.128c21.967866 0 42.165743 12.027927 52.707679 31.387809l2.273986 4.171975 4.741971-0.215999c1.507991-0.07 3.075981-0.139999 4.643972-0.139999 68.569582 0 124.353242 55.78566 124.353242 124.355242a122.499254 122.499254 0 0 1-4.143975 31.631807l-1.877988 7.025958 6.941958 2.179986a124.043244 124.043244 0 0 1 19.193883 7.849952c29.859818 15.261907 46.561716 46.01372 41.557746 76.525534z" fill="#4A555F" p-id="2188"></path><path d="M805.79821 239.494781a106.073354 106.073354 0 0 0-16.3999-6.70796l-23.411858-7.357955 6.341962-23.707855a104.621362 104.621362 0 0 0 3.531978-26.971836c0-58.629643-47.699709-106.327352-106.329352-106.327352-1.295992 0-2.591984 0.064-3.833977 0.121999l-15.995902 0.719996-7.661953-14.065914c-7.381955-13.555917-21.503869-21.977866-36.863776-21.977866-0.925994 0-1.861989 0.03-2.817983 0.091999-21.955866 1.389992-39.151761 20.697874-39.151761 43.957732v189.306847c0 32.177804 26.17984 58.355644 58.359644 58.355644h184.158878c8.27195 0 15.659905-2.339986 20.813873-6.58796 6.019963-4.96397 9.693941-11.931927 11.229932-21.29387 3.729977-22.749861-9.121944-45.87972-31.969805-57.555649z" fill="#FFD452" p-id="2189"></path><path d="M612.747386 191.579073V7.614194h-15.187907v199.154786h73.671551v65.309602h15.187907v-80.499509zM721.332724 56.931893h15.189908v98.357401h-15.189908zM754.702521 291.196466h15.189907v59.363638h-15.189907z" fill="#4A555F" p-id="2190"></path><path d="M678.824983 264.484628c-14.76391 0-26.779837 12.011927-26.779836 26.779837 0 14.76391 12.015927 26.775837 26.779836 26.775837 14.76391 0 26.773837-12.011927 26.773837-26.775837 0-14.76791-12.009927-26.779837-26.773837-26.779837z m0 38.365767a11.603929 11.603929 0 0 1-11.589929-11.58793 11.605929 11.605929 0 0 1 11.589929-11.589929 11.599929 11.599929 0 0 1 11.58393 11.589929 11.597929 11.597929 0 0 1-11.58393 11.58793zM728.952678 147.69334c-14.76391 0-26.773837 12.013927-26.773837 26.779837 0 14.76391 12.009927 26.775837 26.773837 26.775837 14.76391 0 26.779837-12.011927 26.779837-26.775837-0.002-14.76591-12.015927-26.779837-26.779837-26.779837z m0 38.367766a11.599929 11.599929 0 0 1-11.583929-11.585929 11.599929 11.599929 0 0 1 11.583929-11.58993c6.387961 0 11.589929 5.199968 11.589929 11.58993a11.605929 11.605929 0 0 1-11.589929 11.585929zM664.521071 92.779675c-14.76591 0-26.773837 12.011927-26.773837 26.779836 0 14.76391 12.009927 26.775837 26.773837 26.775837 14.76391 0 26.777837-12.011927 26.777836-26.775837 0.002-14.76791-12.013927-26.779837-26.777836-26.779836z m0 38.365766a11.599929 11.599929 0 0 1-11.58593-11.58793 11.599929 11.599929 0 0 1 11.58593-11.589929c6.387961 0 11.589929 5.199968 11.589929 11.589929a11.603929 11.603929 0 0 1-11.589929 11.58793zM605.153432 231.292831c-14.76391 0-26.779837 12.011927-26.779836 26.775836 0 14.76591 12.015927 26.779837 26.779836 26.779837s26.773837-12.011927 26.773837-26.779837c0-14.76391-12.009927-26.775837-26.773837-26.775836z m0 38.365766a11.605929 11.605929 0 0 1-11.589929-11.58993 11.603929 11.603929 0 0 1 11.589929-11.587929 11.599929 11.599929 0 0 1 11.58393 11.587929 11.599929 11.599929 0 0 1-11.58393 11.58993zM762.322475 245.238746c-14.76391 0-26.779837 12.011927-26.779837 26.775836s12.013927 26.775837 26.779837 26.775837c14.76391 0 26.777837-12.011927 26.777836-26.775837s-12.013927-26.775837-26.777836-26.775836z m0 38.363766c-6.387961 0-11.589929-5.199968-11.58993-11.58793s5.201968-11.587929 11.58993-11.587929 11.589929 5.199968 11.589929 11.587929-5.201968 11.587929-11.589929 11.58793z" fill="#4A555F" p-id="2191"></path><path d="M656.927117 42.913978h15.189907v57.45965h-15.189907zM597.559479 277.25455h15.189907v71.701564h-15.189907zM419.296565 0.160239c-27.999829-1.763989-53.973671 11.849928-68.563582 35.051786l-0.721996-0.004c-76.945531 0-139.54115 62.599619-139.54115 139.54515 0 9.647941 1.007994 19.255883 3.001982 28.647826a138.839154 138.839154 0 0 0-14.837909 6.51796c-35.763782 18.275889-55.709661 55.451662-49.637698 92.505436 2.853983 17.409894 10.551936 31.391809 22.877861 41.561747 11.089932 9.139944 25.987842 14.171914 41.953744 14.171913h184.156878c50.497692 0 91.575442-41.08175 91.575442-91.575441V77.269769c-0.004-40.739752-30.865812-74.609545-70.263572-77.10953z m55.071664 266.418377c0 42.119743-34.265791 76.385535-76.385534 76.385534h-184.156878c-12.449924 0-23.915854-3.801977-32.291803-10.705935-9.403943-7.753953-15.307907-18.623887-17.547893-32.295803-5.00397-30.511814 11.697929-61.263627 41.557746-76.521534a123.937245 123.937245 0 0 1 19.193884-7.851952l6.941957-2.179986-1.877988-7.025958a122.499254 122.499254 0 0 1-4.143975-31.631807c0-68.569582 55.78366-124.355242 124.353242-124.355242 1.56799 0 3.139981 0.07 4.637972 0.139999l4.745971 0.215999 2.273986-4.171975c11.169932-20.511875 32.919799-32.8358 56.663655-31.257809 31.421809 1.991988 56.035659 29.203822 56.035658 61.951622v189.304847z" fill="#4A555F" p-id="2192"></path><path d="M417.174578 33.312037c-0.941994-0.06-1.875989-0.089999-2.803983-0.089999-15.359906 0-29.48782 8.421949-36.873775 21.981866l-7.657954 14.057914-15.993902-0.717996c-1.241992-0.058-2.537985-0.121999-3.833977-0.121999-58.629643 0-106.325352 47.697709-106.325352 106.327352 0 9.137944 1.185993 18.211889 3.527979 26.971836l6.335961 23.701855-23.401857 7.359955a106.291352 106.291352 0 0 0-16.399901 6.70796c-22.851861 11.677929-35.703782 34.807788-31.969805 57.561649 1.531991 9.361943 5.205968 16.327901 11.229932 21.29587 5.149969 4.245974 12.541924 6.58596 20.813873 6.58596h184.156878c32.175804 0 58.353644-26.17984 58.353644-58.355644V77.271769c0.004-23.259858-17.191895-42.567741-39.157761-43.959732z" fill="#FFD452" p-id="2193"></path><path d="M406.796641 7.614194v183.964879h-73.671551v80.499509h15.187907v-65.309602h73.673552V7.614194zM283.023395 56.931893h15.189908v98.357401h-15.189908zM249.653599 291.196466h15.189907v59.363638h-15.189907z" fill="#4A555F" p-id="2194"></path><path d="M340.719044 264.484628c-14.76391 0-26.773837 12.011927-26.773837 26.779837 0 14.76391 12.009927 26.775837 26.773837 26.775837s26.779837-12.011927 26.779837-26.775837c0-14.76791-12.015927-26.779837-26.779837-26.779837z m0 38.365767a11.599929 11.599929 0 0 1-11.58393-11.58793c0-6.389961 5.195968-11.589929 11.58393-11.589929s11.589929 5.199968 11.589929 11.589929a11.603929 11.603929 0 0 1-11.589929 11.58793zM290.593349 147.69334c-14.76391 0-26.777837 12.013927-26.777837 26.779837 0 14.76391 12.013927 26.775837 26.777837 26.775837s26.773837-12.011927 26.773837-26.775837c0-14.76591-12.009927-26.779837-26.773837-26.779837z m0 38.367766a11.603929 11.603929 0 0 1-11.589929-11.585929 11.605929 11.605929 0 0 1 11.589929-11.58993 11.599929 11.599929 0 0 1 11.58393 11.58993 11.599929 11.599929 0 0 1-11.58393 11.585929zM355.022957 92.779675c-14.76391 0-26.777837 12.011927-26.777837 26.779836 0 14.76391 12.013927 26.775837 26.777837 26.775837s26.773837-12.011927 26.773836-26.775837c0-14.76791-12.007927-26.779837-26.773836-26.779836z m0 38.365766a11.603929 11.603929 0 0 1-11.58993-11.58793c0-6.389961 5.201968-11.589929 11.58993-11.589929s11.583929 5.199968 11.583929 11.589929a11.597929 11.597929 0 0 1-11.583929 11.58793zM414.392595 231.292831c-14.76391 0-26.773837 12.011927-26.773837 26.775836 0 14.76591 12.009927 26.779837 26.773837 26.779837s26.779837-12.011927 26.779837-26.779837c-0.002-14.76391-12.015927-26.775837-26.779837-26.775836z m0 38.365766a11.599929 11.599929 0 0 1-11.58393-11.58993c0-6.387961 5.195968-11.587929 11.58393-11.587929s11.589929 5.199968 11.589929 11.587929a11.605929 11.605929 0 0 1-11.589929 11.58993zM257.223553 245.238746c-14.76391 0-26.777837 12.011927-26.777837 26.775836s12.013927 26.775837 26.777837 26.775837S284.001389 286.778492 284.001389 272.014582s-12.013927-26.775837-26.777836-26.775836z m0 38.363766c-6.387961 0-11.589929-5.199968-11.58993-11.58793s5.201968-11.587929 11.58993-11.587929 11.589929 5.199968 11.589929 11.587929-5.201968 11.587929-11.589929 11.58793z" fill="#4A555F" p-id="2195"></path><path d="M347.429003 42.913978h15.189907v57.45965h-15.189907zM406.796641 277.25455h15.189908v71.701564h-15.189908zM465.552283 493.029236c-15.149908-15.433906-42.359742-33.829794-85.939476-33.829794-71.965561 0-85.795477-53.595673-86.349474-55.87566l-14.77991 3.495979c0.157999 0.677996 16.815898 67.569588 101.129384 67.569588 72.663557 0 93.57943 55.699661 94.423424 58.047646l14.319913-5.061969c-0.251998-0.711996-6.329961-17.559893-22.803861-34.34579zM744.032586 397.475818c-0.133999 0.555997-13.937915 55.84766-86.349474 55.84766-83.66949 0-108.499339 67.491589-108.743337 68.173584l14.319913 5.063969c0.207999-0.581996 21.36987-58.047646 94.423424-58.047646 84.313486 0 100.975385-66.893592 101.133384-67.571588l-14.78391-3.465979z" fill="#4A555F" p-id="2196"></path><path d="M281.331406 395.789828l-17.003897 43.933732 14.161914 5.483967 11.929927-30.827812 34.843788 10.465936 4.371973-14.547911zM593.771502 509.101138l-35.209786 11.335931-12.167926-33.291798-14.269913 5.215969 17.181896 47.011713 49.1217-15.813903z" fill="#4A555F" p-id="2197"></path></svg>