<?xml version="1.0" standalone="no"?>
<!DOCTYPE svg PUBLIC "-//W3C//DTD SVG 20010904//EN"
 "http://www.w3.org/TR/2001/REC-SVG-20010904/DTD/svg10.dtd">
<svg version="1.0" xmlns="http://www.w3.org/2000/svg"
 width="712.000000pt" height="675.000000pt" viewBox="0 0 712.000000 675.000000"
 preserveAspectRatio="xMidYMid meet">
<metadata>
Created by potrace 1.15, written by Peter Selinger 2001-2017
</metadata>
<g transform="translate(0.000000,675.000000) scale(0.100000,-0.100000)"
fill="#000000" stroke="none">
<path d="M1347 2993 c-4 -3 -7 -78 -7 -165 0 -179 -8 -196 -56 -108 l-27 50
-64 0 c-36 0 -63 -3 -61 -8 2 -4 21 -40 43 -79 l40 -73 52 0 c47 0 52 2 61 28
10 26 10 25 11 -15 l1 -42 -102 -3 -103 -3 -3 -37 -3 -38 105 0 105 0 3 -62 3
-63 73 -3 72 -3 0 66 c0 63 1 65 26 65 23 0 25 3 22 38 -2 30 -7 38 -25 40
l-23 3 0 210 0 209 -68 0 c-38 0 -72 -3 -75 -7z"/>
<path d="M2090 2785 l0 -215 -255 0 -255 0 0 -40 0 -40 255 0 255 0 0 -60 0
-60 70 0 70 0 0 60 0 60 60 0 60 0 0 40 0 40 -60 0 -60 0 0 215 0 215 -70 0
-70 0 0 -215z"/>
<path d="M2500 2970 c0 -30 -1 -30 -55 -30 l-55 0 0 -40 0 -40 55 0 55 0 2
-242 3 -243 58 -3 57 -3 0 246 0 245 55 0 55 0 0 40 0 40 -55 0 c-54 0 -55 0
-55 30 l0 30 -60 0 -60 0 0 -30z"/>
<path d="M4224 2727 c-129 -232 -154 -273 -176 -277 -26 -5 -26 -6 -13 -37 14
-33 15 -33 82 -33 l68 0 103 190 c57 105 107 188 112 185 4 -3 54 -88 111
-190 l104 -185 68 0 c67 0 68 0 82 33 13 31 13 32 -13 37 -21 4 -45 38 -138
195 -104 175 -116 190 -144 193 -16 2 -30 5 -30 7 0 2 18 35 40 74 22 39 40
73 40 76 0 3 -33 5 -72 5 l-73 0 -151 -273z"/>
<path d="M5280 2975 l0 -25 -100 0 -100 0 0 -247 0 -248 -122 0 -123 0 -3 -37
-3 -38 104 0 c100 0 105 1 112 23 l8 22 4 -22 c4 -21 10 -23 68 -23 l65 0 2
178 3 177 127 3 127 3 9 27 10 27 1 -27 c1 -27 2 -28 61 -28 l60 0 0 105 0
105 -100 0 -100 0 0 25 c0 24 -3 25 -55 25 -52 0 -55 -1 -55 -25z m190 -140
l0 -36 -137 3 -138 3 -3 33 -3 32 140 0 141 0 0 -35z"/>
<path d="M770 2956 c0 -34 1 -35 48 -38 43 -3 47 -5 50 -30 3 -26 1 -27 -50
-30 l-53 -3 0 -35 0 -35 53 -3 52 -3 0 -205 0 -204 65 0 65 0 0 205 0 205 50
0 50 0 0 40 0 40 -50 0 c-49 0 -50 1 -50 30 0 27 3 30 33 30 28 0 36 5 50 35
l17 35 -165 0 -165 0 0 -34z"/>
<path d="M2780 2720 c0 -231 -2 -271 -15 -276 -9 -4 -15 -19 -15 -40 l0 -34
75 0 75 0 2 268 3 267 43 3 42 3 0 -270 0 -271 71 0 70 0 15 35 c18 44 18 45
-6 45 -20 0 -20 7 -20 270 l0 270 -170 0 -170 0 0 -270z"/>
<path d="M3230 2905 l0 -85 86 0 c71 0 89 3 100 18 13 16 13 16 14 0 0 -15 10
-18 65 -18 l65 0 0 85 0 85 -165 0 -165 0 0 -85z"/>
<path d="M3620 2905 l0 -85 84 0 c76 0 86 2 100 22 l16 22 0 -22 c0 -20 4 -22
65 -22 l66 0 -3 83 -3 82 -162 3 -163 2 0 -85z"/>
<path d="M4895 2910 c-83 -142 -85 -170 -10 -170 25 0 45 -3 45 -6 0 -3 -22
-43 -50 -89 -27 -46 -50 -95 -50 -109 l0 -26 115 0 115 0 0 35 c0 35 0 35 -45
35 -25 0 -45 2 -45 4 0 2 20 39 45 80 33 56 45 87 45 116 l0 39 -45 3 -44 3
41 70 c58 101 59 95 -10 95 l-60 0 -47 -80z"/>
<path d="M5640 2955 c0 -35 0 -35 45 -35 43 0 45 -1 45 -30 0 -29 -2 -30 -45
-30 l-45 0 0 -40 0 -40 45 0 45 0 0 -205 0 -205 60 0 60 0 0 204 0 205 48 3
c47 3 47 3 47 38 0 35 0 35 -48 38 -46 3 -48 4 -45 30 2 21 9 28 31 30 23 3
57 42 57 67 0 3 -67 5 -150 5 l-150 0 0 -35z"/>
<path d="M5970 2885 l0 -105 133 0 134 0 13 28 14 27 4 -27 c3 -27 5 -28 68
-28 l64 0 0 105 0 105 -215 0 -215 0 0 -105z"/>
<path d="M1680 2971 c0 -5 43 -50 96 -100 l96 -91 63 0 c49 0 64 4 69 16 4 9
5 17 4 18 -2 1 -42 38 -90 84 l-88 82 -75 0 c-41 0 -75 -4 -75 -9z"/>
<path d="M1130 2954 c0 -4 19 -40 42 -80 l42 -74 48 0 c41 0 50 4 59 23 9 20
7 28 -14 51 -14 14 -30 40 -37 56 -12 29 -15 30 -76 30 -35 0 -64 -3 -64 -6z"/>
<path d="M2390 2615 l0 -215 45 0 45 0 0 215 0 215 -45 0 -45 0 0 -215z"/>
<path d="M2640 2615 l0 -215 45 0 45 0 0 215 0 215 -45 0 -45 0 0 -215z"/>
<path d="M3530 2790 c0 -19 -7 -20 -165 -20 l-165 0 0 -35 0 -34 133 -3 c120
-3 129 -4 102 -17 -16 -7 -76 -18 -132 -24 l-103 -11 0 -38 c0 -27 4 -38 15
-38 12 0 15 -18 15 -100 l0 -100 84 0 c74 0 87 3 99 20 l14 21 6 -21 c4 -17
13 -20 66 -20 l61 0 0 100 0 100 -127 1 c-114 1 -121 2 -68 10 70 10 172 45
198 67 15 14 21 13 65 -10 60 -32 102 -46 177 -57 54 -8 48 -9 -62 -10 l-123
-1 0 -100 0 -100 85 0 c73 0 86 3 95 19 14 28 14 29 -22 33 -31 3 -33 6 -36
46 l-3 42 40 0 41 0 0 -70 0 -71 63 3 62 3 0 98 c0 71 3 97 13 97 7 0 12 15
12 40 l0 40 -43 0 c-58 0 -156 19 -187 36 -22 12 -11 13 103 14 l127 0 0 35
c0 30 -3 35 -24 35 -13 0 -26 7 -30 15 -4 11 -21 15 -60 15 -45 0 -54 -3 -50
-15 5 -13 -7 -15 -74 -15 -71 0 -80 2 -85 20 -4 17 -14 20 -61 20 -49 0 -56
-2 -56 -20z"/>
<path d="M1700 2705 l95 -95 66 0 c79 0 97 18 52 53 -16 12 -55 47 -89 79
l-61 58 -79 0 -79 0 95 -95z"/>
<path d="M770 2565 l0 -195 35 0 35 0 0 195 0 195 -35 0 -35 0 0 -195z"/>
<path d="M1030 2565 l0 -195 35 0 35 0 0 195 0 195 -35 0 -35 0 0 -195z"/>
<path d="M5647 2754 c-4 -4 -7 -92 -7 -196 l0 -188 35 0 35 0 -2 193 -3 192
-25 3 c-14 2 -29 0 -33 -4z"/>
<path d="M5880 2565 l0 -195 30 0 30 0 0 195 0 195 -30 0 -30 0 0 -195z"/>
<path d="M5960 2695 l0 -35 80 0 80 0 0 -35 0 -35 -75 0 -75 0 0 -35 0 -35 75
0 75 0 0 -35 0 -35 -80 0 -80 0 0 -35 0 -35 225 0 225 0 0 35 0 35 -75 0 -75
0 0 35 0 35 70 0 70 0 0 35 0 35 -70 0 -70 0 0 35 0 35 70 0 70 0 0 35 0 35
-220 0 -220 0 0 -35z"/>
<path d="M5210 2540 l0 -160 45 0 45 0 0 65 c0 37 4 65 10 65 6 0 10 -28 10
-65 l0 -65 30 0 c30 0 30 0 30 59 0 81 18 88 22 9 l3 -63 33 -3 32 -3 0 65 c0
37 4 66 10 66 6 0 10 -28 10 -65 l0 -65 50 0 51 0 -3 158 -3 157 -187 3 -188
2 0 -160z"/>
<path d="M807 2263 c-4 -3 -7 -55 -7 -115 l0 -108 30 0 c29 0 30 2 30 45 0 25
3 45 6 45 3 0 32 -21 64 -46 46 -36 65 -45 90 -42 l32 3 -66 53 c-36 29 -66
56 -66 60 0 4 25 25 56 47 76 54 84 65 47 65 -19 0 -51 -16 -91 -45 -34 -25
-64 -45 -67 -45 -3 0 -5 20 -5 45 0 40 -2 45 -23 45 -13 0 -27 -3 -30 -7z"/>
<path d="M1187 2258 c-15 -12 -17 -27 -15 -113 l3 -100 128 -3 c101 -2 128 0
125 10 -3 9 -36 15 -104 18 l-99 5 -3 33 -3 32 75 0 c60 0 76 3 76 15 0 11
-17 15 -72 17 l-73 3 0 30 0 30 103 3 c76 2 102 6 99 15 -6 18 -216 22 -240 5z"/>
<path d="M1540 2155 l0 -115 118 0 c78 0 122 4 130 12 8 8 12 46 12 105 0 81
-2 94 -19 103 -11 5 -69 10 -130 10 l-111 0 0 -115z m200 0 l0 -85 -70 0 -70
0 0 85 0 85 70 0 70 0 0 -85z"/>
<path d="M1932 2262 c-9 -6 -12 -36 -10 -113 l3 -104 120 0 120 0 3 100 c2 85
0 102 -15 112 -19 15 -200 18 -221 5z m186 -109 l3 -83 -76 0 -75 0 0 85 0 86
73 -3 72 -3 3 -82z"/>
<path d="M2307 2257 c-15 -10 -17 -27 -15 -112 l3 -100 123 -3 c104 -2 122 0
122 13 0 12 -17 15 -100 15 l-101 0 3 83 3 82 98 3 c77 2 97 6 97 17 0 12 -20
15 -108 15 -71 0 -114 -4 -125 -13z"/>
<path d="M2678 2259 c-15 -8 -18 -25 -18 -102 0 -59 4 -97 12 -105 16 -16 220
-16 236 0 8 8 12 46 12 105 0 81 -2 94 -19 103 -25 13 -201 13 -223 -1z m182
-104 l0 -85 -70 0 -70 0 0 85 0 85 70 0 70 0 0 -85z"/>
<path d="M3037 2263 c-4 -3 -7 -55 -7 -115 l0 -109 128 3 127 3 3 100 c2 85 0
102 -15 112 -18 14 -224 19 -236 6z m198 -108 l0 -80 -72 -3 -73 -3 0 86 0 86
73 -3 72 -3 0 -80z"/>
<path d="M3427 2263 c-16 -4 -17 -16 -15 -111 l3 -107 123 -3 c104 -2 122 0
122 13 0 12 -17 15 -100 15 l-100 0 0 35 0 35 75 0 c60 0 75 3 75 15 0 12 -15
15 -76 15 l-75 0 3 33 3 32 98 3 c77 2 97 6 97 17 0 12 -19 15 -107 14 -60 -1
-116 -3 -126 -6z"/>
<path d="M3883 2263 c-9 -3 -13 -36 -13 -114 l0 -109 25 0 c23 0 25 3 25 50
l0 50 75 0 75 0 0 -50 c0 -47 2 -50 25 -50 l25 0 0 109 c0 104 -1 109 -22 115
-27 7 -198 7 -215 -1z"/>
<path d="M4257 2258 c-15 -12 -17 -27 -15 -113 l3 -100 128 -3 c101 -2 128 0
125 10 -3 9 -36 15 -104 18 l-99 5 0 80 0 80 103 3 c76 2 102 6 99 15 -6 18
-216 22 -240 5z"/>
<path d="M4628 2259 c-15 -8 -18 -26 -18 -114 l0 -105 30 0 c29 0 30 1 30 50
l0 50 70 0 70 0 0 -50 c0 -49 1 -50 30 -50 l30 0 0 105 c0 93 -2 105 -19 115
-25 13 -201 13 -223 -1z"/>
<path d="M4990 2155 l0 -116 123 3 122 3 3 100 c4 126 5 125 -140 125 l-108 0
0 -115z m198 -2 l3 -83 -76 0 -75 0 0 85 0 86 73 -3 72 -3 3 -82z"/>
<path d="M5377 2257 c-15 -10 -17 -27 -15 -112 l3 -100 123 -3 c104 -2 122 0
122 13 0 12 -17 15 -100 15 l-100 0 0 35 0 35 75 0 c60 0 75 3 75 15 0 12 -15
15 -76 15 l-75 0 3 33 3 32 98 3 c77 2 97 6 97 17 0 12 -20 15 -108 15 -71 0
-114 -4 -125 -13z"/>
<path d="M5730 2155 l0 -115 30 0 30 0 0 100 0 100 30 0 30 0 0 -100 0 -100
30 0 30 0 0 100 0 100 30 0 30 0 0 -100 0 -100 30 0 30 0 0 105 c0 93 -2 105
-19 115 -11 5 -78 10 -150 10 l-131 0 0 -115z"/>
<path d="M6150 2211 c0 -64 6 -71 61 -71 28 0 29 -1 29 -50 0 -49 1 -50 30
-50 29 0 30 1 30 50 0 49 1 50 31 50 56 0 69 14 69 75 0 54 0 55 -30 55 -29 0
-30 -1 -30 -50 l0 -50 -70 0 -70 0 0 50 c0 47 -2 50 -25 50 -24 0 -25 -3 -25
-59z"/>
</g>
</svg>
